<svg xmlns="http://www.w3.org/2000/svg" xmlns:xlink="http://www.w3.org/1999/xlink" width="850" zoomAndPan="magnify" viewBox="0 0 637.5 637.499985" height="850" preserveAspectRatio="xMidYMid meet" version="1.0"><defs><clipPath id="db9d448afc"><path d="M 268.410156 77.0625 L 386.5625 77.0625 L 386.5625 544.082031 L 268.410156 544.082031 Z M 268.410156 77.0625 " clip-rule="nonzero"/></clipPath><clipPath id="66272dd9cd"><path d="M 210.917969 139.320312 L 448.53125 139.320312 L 448.53125 235.277344 L 210.917969 235.277344 Z M 210.917969 139.320312 " clip-rule="nonzero"/></clipPath><clipPath id="fe4d6cde9c"><path d="M 191.191406 176.03125 L 426.691406 176.03125 L 426.691406 318.5 L 191.191406 318.5 Z M 191.191406 176.03125 " clip-rule="nonzero"/></clipPath><clipPath id="334670aec4"><path d="M 191.191406 370.144531 L 468.980469 370.144531 L 468.980469 466.101562 L 191.191406 466.101562 Z M 191.191406 370.144531 " clip-rule="nonzero"/></clipPath><clipPath id="030f715f4c"><path d="M 229.523438 294.308594 L 448.53125 294.308594 L 448.53125 390.265625 L 229.523438 390.265625 Z M 229.523438 294.308594 " clip-rule="nonzero"/></clipPath><clipPath id="ce0b21b5e8"><path d="M 249.96875 322.167969 L 468.980469 322.167969 L 468.980469 418.125 L 249.96875 418.125 Z M 249.96875 322.167969 " clip-rule="nonzero"/></clipPath><clipPath id="de3aca0bc4"><path d="M 229.523438 390.265625 L 448.53125 390.265625 L 448.53125 486.21875 L 229.523438 486.21875 Z M 229.523438 390.265625 " clip-rule="nonzero"/></clipPath><clipPath id="8dee7b2261"><path d="M 141 65 L 502 65 L 502 572.507812 L 141 572.507812 Z M 141 65 " clip-rule="nonzero"/></clipPath></defs><g clip-path="url(#db9d448afc)"><path fill="#6f6058" d="M 268.410156 77.0625 L 386.5625 77.0625 L 386.5625 544.082031 L 268.410156 544.082031 Z M 268.410156 77.0625 " fill-opacity="1" fill-rule="nonzero"/></g><g clip-path="url(#66272dd9cd)"><path fill="#6f6058" d="M 210.917969 139.320312 L 448.53125 139.320312 L 448.53125 235.277344 L 210.917969 235.277344 Z M 210.917969 139.320312 " fill-opacity="1" fill-rule="nonzero"/></g><g clip-path="url(#fe4d6cde9c)"><path fill="#6f6058" d="M 191.191406 176.03125 L 426.691406 176.03125 L 426.691406 318.5 L 191.191406 318.5 Z M 191.191406 176.03125 " fill-opacity="1" fill-rule="nonzero"/></g><g clip-path="url(#334670aec4)"><path fill="#6f6058" d="M 191.191406 370.144531 L 468.980469 370.144531 L 468.980469 466.101562 L 191.191406 466.101562 Z M 191.191406 370.144531 " fill-opacity="1" fill-rule="nonzero"/></g><g clip-path="url(#030f715f4c)"><path fill="#6f6058" d="M 229.523438 294.308594 L 448.53125 294.308594 L 448.53125 390.265625 L 229.523438 390.265625 Z M 229.523438 294.308594 " fill-opacity="1" fill-rule="nonzero"/></g><g clip-path="url(#ce0b21b5e8)"><path fill="#6f6058" d="M 249.96875 322.167969 L 468.980469 322.167969 L 468.980469 418.125 L 249.96875 418.125 Z M 249.96875 322.167969 " fill-opacity="1" fill-rule="nonzero"/></g><g clip-path="url(#de3aca0bc4)"><path fill="#6f6058" d="M 229.523438 390.265625 L 448.53125 390.265625 L 448.53125 486.21875 L 229.523438 486.21875 Z M 229.523438 390.265625 " fill-opacity="1" fill-rule="nonzero"/></g><g clip-path="url(#8dee7b2261)"><path fill="#68aa68" d="M 448.121094 276.976562 C 439.8125 266.613281 469.910156 214.746094 469.910156 214.746094 L 493.753906 174.28125 C 496.863281 155.636719 493.753906 154.578125 481.324219 145.25 C 468.878906 135.921875 411.824219 110 404.554688 104.800781 C 396.273438 97.550781 395.222656 80.949219 395.222656 75.765625 C 395.222656 67.460938 383.8125 66.421875 369.285156 65.382812 C 354.785156 64.359375 275.929688 67.460938 275.929688 67.460938 C 269.722656 67.460938 265.578125 77.839844 265.578125 87.175781 C 265.578125 96.503906 267.644531 100.652344 262.453125 102.730469 C 257.277344 104.800781 195.058594 124.503906 174.292969 179.480469 C 153.546875 234.441406 160.828125 287.351562 192.953125 323.648438 C 206.445312 335.070312 204.371094 338.167969 201.269531 345.445312 C 198.15625 352.699219 147.335938 422.195312 146.292969 425.316406 C 141.105469 443.953125 133.847656 441.890625 158.730469 461.59375 C 183.644531 481.316406 219.9375 504.140625 250.007812 510.359375 C 266.601562 515.539062 266.601562 533.179688 266.601562 533.179688 L 264.539062 559.101562 C 264.539062 567.402344 266.601562 570.5 285.273438 570.5 C 303.941406 570.5 376.558594 572.582031 376.558594 572.582031 C 376.558594 572.582031 394.167969 570.5 394.167969 553.925781 C 394.167969 537.328125 396.277344 527.980469 396.277344 527.980469 C 399.375 517.613281 406.628906 511.386719 415.972656 507.238281 C 425.304688 503.101562 499.980469 479.238281 501.011719 393.148438 C 503.097656 309.125 456.433594 287.347656 448.121094 276.976562 Z M 461.59375 388.996094 C 453.320312 472.992188 371.363281 481.316406 367.214844 481.316406 C 363.082031 481.316406 356.84375 485.457031 356.84375 488.570312 C 356.84375 488.570312 356.84375 498.949219 356.84375 511.386719 C 356.84375 523.835938 353.71875 532.132812 347.515625 532.132812 C 347.515625 532.132812 318.464844 532.132812 312.246094 532.132812 C 306.019531 532.132812 303.941406 529.011719 303.941406 520.71875 C 303.941406 520.71875 303.941406 503.101562 303.941406 494.796875 C 303.941406 486.492188 299.808594 484.414062 291.5 481.316406 C 256.234375 478.199219 219.933594 457.445312 208.539062 451.230469 C 197.117188 445 194 441.886719 191.929688 432.550781 C 191.929688 425.285156 212.667969 398.335938 217.863281 391.074219 C 220.980469 385.898438 225.113281 381.753906 232.375 383.816406 C 236.539062 384.855469 269.726562 402.488281 283.195312 408.703125 C 296.679688 414.929688 306.019531 415.972656 304.972656 409.746094 L 308.097656 357.882812 C 308.097656 357.882812 307.058594 346.480469 302.902344 341.28125 C 298.753906 336.109375 233.40625 334.03125 208.539062 276.976562 C 183.644531 219.917969 208.539062 149.390625 303.941406 133.859375 C 303.941406 133.859375 303.941406 126.585938 303.941406 120.355469 C 303.941406 114.140625 304.976562 105.847656 308.097656 105.847656 C 308.097656 105.847656 326.777344 105.847656 336.105469 105.847656 C 345.449219 105.847656 355.824219 111.023438 355.824219 119.308594 C 357.882812 126.585938 352.691406 133.855469 362.019531 135.917969 C 362.019531 135.917969 428.421875 159.761719 437.75 164.957031 C 447.089844 170.125 445.027344 174.277344 441.898438 182.574219 C 438.777344 188.820312 427.375 207.472656 422.191406 218.914062 C 417.011719 230.300781 417.011719 232.375 407.679688 227.195312 C 407.679688 227.195312 362.019531 203.320312 357.882812 204.359375 C 353.734375 205.425781 354.785156 234.4375 354.785156 251.046875 C 354.785156 267.628906 355.824219 270.742188 359.960938 280.085938 C 402.480469 291.511719 466.785156 323.648438 461.59375 388.996094 Z M 357.863281 352.722656 C 352.65625 351.722656 353.71875 353.738281 353.71875 362.042969 L 353.71875 412.886719 C 353.71875 420.109375 355.824219 423.4375 362.050781 419.175781 C 395.515625 409.003906 402.503906 376.660156 357.863281 352.722656 Z M 274.898438 243.785156 C 284.238281 255.207031 302.929688 269.726562 304.972656 259.34375 C 307.058594 248.976562 306.019531 198.15625 306.019531 198.15625 C 271.796875 201.261719 265.578125 232.378906 274.898438 243.785156 Z M 274.898438 243.785156 " fill-opacity="1" fill-rule="nonzero"/></g></svg>